<?xml version="1.0" encoding="UTF-8"?>
<!DOCTYPE svg PUBLIC "-//W3C//DTD SVG 1.1//EN" "http://www.w3.org/Graphics/SVG/1.1/DTD/svg11.dtd">
<!-- Creator: CorelDRAW X7 -->
<svg xmlns="http://www.w3.org/2000/svg" xml:space="preserve" width="35.2926mm" height="35.2925mm" version="1.1" style="shape-rendering:geometricPrecision; text-rendering:geometricPrecision; image-rendering:optimizeQuality; fill-rule:evenodd; clip-rule:evenodd"
viewBox="0 0 137 137"
 xmlns:xlink="http://www.w3.org/1999/xlink">
 <defs>
  <style type="text/css">
   <![CDATA[
    .fil0 {fill:#585858}
   ]]>
  </style>
 </defs>
 <g id="Слой_x0020_1">
  <metadata id="CorelCorpID_0Corel-Layer"/>
  <g id="_1825959750160">
   <path class="fil0" d="M116 105c-6,0 -11,5 -11,11 0,7 5,12 11,12 7,0 12,-5 12,-12 0,-6 -5,-11 -12,-11zm0 18c-3,0 -6,-3 -6,-7 0,-3 3,-6 6,-6 4,0 7,3 7,6 0,4 -3,7 -7,7z"/>
   <path class="fil0" d="M132 104l0 -77c0,-2 -2,-4 -4,-4l-23 0c-2,0 -5,2 -5,4l0 62c0,1 2,2 3,2l4 0c2,0 3,-1 3,-2 0,-1 -1,-2 -3,-2l-2 0 0 -5 2 0c2,0 3,-1 3,-2 0,-1 -1,-2 -3,-2l-2 0 0 -5 7 0c1,0 2,-1 2,-2 0,-1 -1,-2 -2,-2l-7 0 0 -5 2 0c2,0 3,-1 3,-2 0,-2 -1,-3 -3,-3l-2 0 0 -4 2 0c2,0 3,-1 3,-2 0,-2 -1,-3 -3,-3l-2 0 0 -4 2 0c2,0 3,-1 3,-3 0,-1 -1,-2 -3,-2l-2 0 0 -4 7 0c1,0 2,-1 2,-3 0,-1 -1,-2 -2,-2l-7 0 0 -5 23 0 0 72c-3,-2 -7,-3 -12,-3 -11,0 -20,9 -20,20 0,5 1,9 3,12l-62 0 0 -23 4 0 0 7c0,1 1,2 2,2 2,0 3,-1 3,-2l0 -7 4 0 0 2c0,2 1,3 3,3 1,0 2,-1 2,-3l0 -2 4 0 0 2c0,2 1,3 3,3 1,0 2,-1 2,-3l0 -2 5 0 0 2c0,2 1,3 2,3 1,0 2,-1 2,-3l0 -2 5 0 0 7c0,1 1,2 2,2 1,0 2,-1 2,-2l0 -7 5 0 0 2c0,2 1,3 2,3 1,0 2,-1 2,-3l0 -4c0,-1 -1,-2 -2,-2l-52 0c-3,0 -5,1 -5,4l0 23c0,3 2,4 5,4l67 0c3,3 8,5 12,5 12,0 21,-9 21,-21 0,-4 -2,-9 -5,-12zm-16 28c-8,0 -15,-7 -15,-16 0,-8 7,-15 15,-15 9,0 16,7 16,15 0,9 -7,16 -16,16z"/>
   <path class="fil0" d="M119 16c0,-1 -1,-2 -3,-2l-89 0c0,-8 -6,-14 -13,-14 -8,0 -14,6 -14,14l0 109c0,8 6,14 14,14l11 0c1,0 2,-1 2,-2 0,-1 -1,-3 -2,-3l-11 0c-5,0 -9,-4 -9,-9 0,-5 4,-9 9,-9 5,0 9,4 9,9 0,2 1,3 2,3 1,0 2,-1 2,-3l0 -105 89 0c2,0 3,-1 3,-2zm-96 97c-3,-2 -6,-3 -9,-3 -4,0 -7,1 -9,3l0 -99c0,-5 4,-9 9,-9 5,0 9,4 9,9l0 99z"/>
   <path class="fil0" d="M87 31c1,1 1,1 2,1 1,0 1,0 2,-1 1,-1 1,-2 0,-3l-5 -4c0,-1 0,-1 -1,-1 0,0 -1,0 -1,0 -1,0 -1,0 -1,1l-5 4c-1,1 -1,2 0,3 1,1 3,1 4,0l0 0 0 53 0 -1c-1,-1 -3,-1 -4,0 -1,1 -1,2 0,3l5 5c0,0 0,0 1,0 0,0 0,0 1,0 0,0 0,0 0,0 1,0 1,0 1,0l5 -5c1,-1 1,-2 0,-3 -1,-1 -3,-1 -4,0l0 1 0 -53 0 0z"/>
  </g>
 </g>
</svg>
