<?xml version="1.0" encoding="UTF-8"?>
<!DOCTYPE svg PUBLIC "-//W3C//DTD SVG 1.1//EN" "http://www.w3.org/Graphics/SVG/1.1/DTD/svg11.dtd">
<!-- Creator: CorelDRAW X7 -->
<svg xmlns="http://www.w3.org/2000/svg" xml:space="preserve" width="35.2927mm" height="35.2905mm" version="1.1" style="shape-rendering:geometricPrecision; text-rendering:geometricPrecision; image-rendering:optimizeQuality; fill-rule:evenodd; clip-rule:evenodd"
viewBox="0 0 120 120"
 xmlns:xlink="http://www.w3.org/1999/xlink">
 <defs>
  <style type="text/css">
   <![CDATA[
    .fil0 {fill:#585858}
   ]]>
  </style>
 </defs>
 <g id="Слой_x0020_1">
  <metadata id="CorelCorpID_0Corel-Layer"/>
  <g id="_1825959752944">
   <path class="fil0" d="M90 79c0,1 0,2 0,3l5 4c0,0 0,1 1,1 0,0 1,-1 1,-1 1,-1 1,-2 0,-3l-4 -4c-1,-1 -2,-1 -3,0z"/>
   <path class="fil0" d="M112 45l0 19 -8 0 0 -10c0,-1 -1,-2 -2,-2 -1,0 -2,1 -2,2l0 12c0,1 1,2 2,2l12 0c1,0 2,-1 2,-2l0 -17 0 0c1,1 1,1 2,1 0,0 1,0 1,-1 1,0 1,-2 0,-3l-4 -4 -18 -17c-1,-1 -2,-1 -3,0 0,0 0,2 0,2l18 18z"/>
   <path class="fil0" d="M67 42c0,0 0,0 0,0l-18 -17c0,-1 -2,-1 -3,0l-21 21c-1,1 -1,3 0,3 0,1 2,1 2,0l1 0 0 17c0,1 1,2 2,2l14 0c1,0 2,-1 2,-2l0 -10 4 0 0 10c0,1 1,2 2,2l14 0c1,0 2,-1 2,-2l0 -17 0 0c1,1 1,1 2,1 0,0 1,0 1,-1 1,0 1,-2 0,-3l-4 -4zm-3 22l-10 0 0 -10c0,-1 -1,-2 -2,-2l-8 0c-1,0 -2,1 -2,2l0 10 -10 0 0 -19 16 -16 16 16 0 19z"/>
   <path class="fil0" d="M48 8c-22,0 -40,18 -40,40 0,22 18,40 40,40 22,0 40,-18 40,-40 0,-22 -18,-40 -40,-40zm0 76c-20,0 -36,-16 -36,-36 0,-20 16,-36 36,-36 20,0 36,16 36,36 0,20 -16,36 -36,36z"/>
   <path class="fil0" d="M103 89c-1,-1 -1,-1 -2,-1l0 0c0,0 -1,0 -1,1l-6 5c0,1 0,2 0,3 1,1 2,1 3,0l4 -4 13 13c1,1 2,2 2,4 0,1 -1,3 -2,4 -2,2 -6,2 -8,0l-24 -24c-1,0 -2,0 -3,0 -1,1 -1,2 0,3l24 24c2,2 4,3 7,3 2,0 5,-1 7,-3 2,-2 3,-5 3,-7 0,-3 -1,-5 -3,-7l-14 -14z"/>
   <path class="fil0" d="M96 48c0,-27 -22,-48 -48,-48 -27,0 -48,21 -48,48 0,26 21,48 48,48 26,0 48,-22 48,-48zm-48 44c-24,0 -44,-20 -44,-44 0,-24 20,-44 44,-44 24,0 44,20 44,44 0,24 -20,44 -44,44z"/>
  </g>
 </g>
</svg>
