<?xml version="1.0" encoding="UTF-8"?>
<!DOCTYPE svg PUBLIC "-//W3C//DTD SVG 1.1//EN" "http://www.w3.org/Graphics/SVG/1.1/DTD/svg11.dtd">
<!-- Creator: CorelDRAW X7 -->
<svg xmlns="http://www.w3.org/2000/svg" xml:space="preserve" width="43.5264mm" height="35.292mm" version="1.1" style="shape-rendering:geometricPrecision; text-rendering:geometricPrecision; image-rendering:optimizeQuality; fill-rule:evenodd; clip-rule:evenodd"
viewBox="0 0 799 648"
 xmlns:xlink="http://www.w3.org/1999/xlink">
 <defs>
  <style type="text/css">
   <![CDATA[
    .fil0 {fill:#585858}
   ]]>
  </style>
 </defs>
 <g id="Слой_x0020_1">
  <metadata id="CorelCorpID_0Corel-Layer"/>
  <g id="_2224675026864">
   <path class="fil0" d="M323 466c-4,0 -7,3 -7,7l0 83c0,4 3,7 7,7 4,0 7,-3 7,-7l0 -83c0,-4 -3,-7 -7,-7z"/>
   <path class="fil0" d="M233 445l0 -55c0,-4 -3,-7 -7,-7 -3,0 -7,3 -7,7l0 55c0,4 4,7 7,7 4,0 7,-3 7,-7z"/>
   <path class="fil0" d="M296 522l-97 0c-4,0 -7,3 -7,7 0,3 3,6 7,6l97 0c3,0 6,-3 6,-6 0,-4 -3,-7 -6,-7z"/>
   <path class="fil0" d="M296 549l-97 0c-4,0 -7,3 -7,7 0,4 3,7 7,7l97 0c3,0 6,-3 6,-7 0,-4 -3,-7 -6,-7z"/>
   <path class="fil0" d="M323 383l-55 0c-4,0 -7,3 -7,7l0 55c0,4 3,7 7,7 4,0 7,-3 7,-7l0 -7 41 0 0 7c0,4 3,7 7,7 4,0 7,-3 7,-7l0 -55c0,-4 -3,-7 -7,-7zm-7 42l-41 0 0 -28 41 0 0 28z"/>
   <path class="fil0" d="M296 494l-97 0c-4,0 -7,3 -7,7 0,4 3,7 7,7l97 0c3,0 6,-3 6,-7 0,-4 -3,-7 -6,-7z"/>
   <path class="fil0" d="M296 466l-97 0c-4,0 -7,3 -7,7 0,4 3,7 7,7l97 0c3,0 6,-3 6,-7 0,-4 -3,-7 -6,-7z"/>
   <path class="fil0" d="M427 286c0,-15 -12,-28 -28,-28 -15,0 -27,13 -27,28 0,15 12,28 27,28 16,0 28,-13 28,-28zm-41 0c0,-7 6,-14 13,-14 8,0 14,7 14,14 0,8 -6,14 -14,14 -7,0 -13,-6 -13,-14z"/>
   <path class="fil0" d="M434 549l-83 0c-4,0 -7,3 -7,7 0,4 3,7 7,7l83 0c4,0 7,-3 7,-7 0,-4 -3,-7 -7,-7z"/>
   <path class="fil0" d="M351 535l57 0c4,0 7,-3 7,-6 0,-4 -3,-7 -7,-7l-57 0c-4,0 -7,3 -7,7 0,3 3,6 7,6z"/>
   <path class="fil0" d="M510 369c-53,0 -97,44 -97,97 0,54 44,97 97,97 54,0 97,-43 97,-97 0,-53 -43,-97 -97,-97zm0 180c-46,0 -83,-37 -83,-83 0,-46 37,-83 83,-83 46,0 83,37 83,83 0,46 -37,83 -83,83z"/>
   <path class="fil0" d="M469 202l131 0c2,0 4,1 6,3 1,1 2,3 2,5l0 173c0,2 -1,3 -1,4 -1,2 -2,3 -4,3 -1,1 -2,1 -3,1 -1,0 -2,0 -3,-1 -1,0 -1,-1 -2,-2l-196 -195 -195 195c-1,1 -2,2 -2,2 -1,1 -2,1 -3,1 -1,0 -1,0 -2,0 0,-1 -1,-1 -1,-1 -2,0 -3,-1 -4,-3 0,-1 -1,-2 -1,-4l0 -173c0,-1 0,-2 1,-3 0,-1 1,-2 1,-2 1,-1 2,-2 3,-2 1,0 2,-1 3,-1l75 0 0 -12 -6 0c-2,0 -4,-1 -6,-2 -1,-2 -2,-4 -2,-6l0 -27c0,-3 1,-4 2,-6 2,-1 4,-2 6,-2l55 0c2,0 4,1 6,2 1,2 2,3 2,6l0 27c0,2 -1,4 -2,6 -2,1 -4,2 -6,2l-6 0 0 12 13 0c2,0 4,1 6,3 1,1 2,3 2,5 0,2 -1,4 -2,5 -2,2 -4,3 -6,3l-21 0c-2,0 -4,-1 -5,-3 -1,-1 -2,-3 -2,-5l0 -28c0,-2 1,-4 2,-5 1,-1 3,-2 5,-2l7 0 0 -13 -40 0 0 13 6 0c2,0 4,1 5,2 1,1 2,3 2,5l0 28c0,2 -1,4 -2,5 -1,2 -3,3 -5,3l-76 0 0 147 188 -188c1,-1 2,-1 2,-2 1,0 2,0 3,0 1,0 2,0 3,0 1,1 2,1 3,2l188 188 0 -147 -124 0c-2,0 -4,-1 -6,-3 -1,-1 -2,-3 -2,-5 0,-2 1,-4 2,-5 2,-2 4,-3 6,-3zm76 227l-1 -1c0,0 -1,0 -2,0 0,0 -1,0 -2,0 -1,0 -1,0 -2,1 -1,0 -1,1 -1,2 -8,13 -15,26 -22,39l-11 20 -20 -24c0,-1 -1,-2 -2,-2 -1,-1 -1,-1 -2,-1 -1,0 -2,0 -2,0 -1,0 -1,0 -2,0l0 1c-1,0 -2,1 -2,1 0,1 -1,2 -1,2 0,1 0,2 0,3 0,0 0,1 0,2l1 0 24 29c0,1 0,1 1,1 0,1 1,1 1,1 0,1 1,1 1,1 1,0 1,0 1,0l1 1c0,0 2,0 3,0 2,-1 4,-2 5,-4l36 -64c0,0 1,-1 1,-2 0,-1 0,-2 0,-3 -1,0 -1,-1 -2,-2 0,-1 -1,-1 -1,-1zm0 -2l0 0c1,1 2,2 3,2 0,1 1,2 1,3 0,1 0,2 0,3 0,1 0,2 -1,3l-36 64c-1,3 -3,4 -5,4 -2,0 -4,0 -5,0l0 0c0,0 -1,0 -1,-1 -1,0 -1,0 -2,0 0,-1 -1,-1 -1,-2 -1,0 -1,0 -1,-1 -8,-9 -19,-21 -25,-30 0,0 -1,-1 -1,-2 0,-1 0,-2 1,-3 0,-1 0,-2 1,-3 0,0 1,-1 2,-2l0 0c1,0 2,-1 3,-1 0,0 1,0 2,0 1,1 2,1 3,2 1,0 2,1 2,2l19 22 9 -18c8,-13 15,-26 22,-39l0 0c1,-1 1,-2 2,-2 1,-1 2,-1 3,-1 1,-1 2,-1 3,-1 0,0 1,1 2,1zm-200 46c0,2 0,3 2,5 1,1 2,1 4,1l42 0c1,0 3,0 4,-1 1,-2 2,-3 2,-5 0,-2 -1,-3 -2,-4 -1,-1 -3,-2 -4,-2l-42 0c-2,0 -3,1 -4,2 -2,1 -2,2 -2,4zm1 5c-2,-1 -3,-3 -3,-5 0,-2 1,-4 3,-5 1,-2 3,-3 5,-3l42 0c2,0 4,1 5,3 1,1 2,3 2,5 0,2 -1,4 -2,5 -1,2 -3,3 -5,3l-42 0c-2,0 -4,-1 -5,-3zm13 -88l0 55c0,2 0,4 1,5 2,1 3,2 5,2 2,0 3,-1 4,-2 1,-1 2,-3 2,-5l0 -49 49 0c2,0 3,0 5,-2 1,-1 1,-2 1,-4 0,-2 0,-3 -1,-4 -2,-2 -3,-2 -5,-2l-55 0c-2,0 -3,0 -5,2 -1,1 -1,2 -1,4zm-2 55l0 -55c0,-2 1,-4 2,-5 2,-2 4,-3 6,-3l55 0c2,0 4,1 6,3 1,1 2,3 2,5 0,2 -1,4 -2,5 -2,2 -4,3 -6,3l-48 0 0 47c0,3 0,4 -2,6 -1,1 -3,2 -5,2 -2,0 -4,-1 -6,-2 -1,-2 -2,-3 -2,-6zm-6 62l45 0c2,0 3,-1 4,-2 2,-1 2,-2 2,-4 0,-2 0,-3 -2,-5 -1,-1 -2,-1 -4,-1l-45 0c-2,0 -3,0 -4,1 -2,2 -2,3 -2,5 0,2 0,3 2,4 1,1 2,2 4,2zm45 1l-45 0c-2,0 -4,0 -5,-2 -2,-1 -3,-3 -3,-5 0,-2 1,-4 3,-6 1,-1 3,-2 5,-2l45 0c2,0 4,1 5,2 2,2 3,4 3,6 0,2 -1,4 -3,5 -1,2 -3,2 -5,2zm114 -138c-26,0 -50,11 -68,28 -17,18 -28,42 -28,68 0,27 11,51 28,68 18,18 42,28 68,28 27,0 51,-10 68,-28 18,-17 28,-41 28,-68 0,-26 -10,-50 -28,-68 -17,-17 -41,-28 -68,-28zm-69 27c18,-18 42,-28 69,-28 27,0 52,10 69,28 18,18 29,42 29,69 0,27 -11,52 -29,69 -17,18 -42,29 -69,29 -27,0 -51,-11 -69,-29 -17,-17 -28,-42 -28,-69 0,-27 11,-51 28,-69zm69 153c-23,0 -44,-9 -59,-25 -15,-15 -25,-36 -25,-59 0,-23 10,-44 25,-59 15,-15 36,-25 59,-25 23,0 44,10 59,25 16,15 25,36 25,59 0,23 -9,44 -25,59 -15,16 -36,25 -59,25zm-58 -26c15,15 36,25 58,25 23,0 44,-10 58,-25 15,-14 25,-35 25,-58 0,-23 -10,-43 -25,-58 -14,-15 -35,-24 -58,-24 -22,0 -43,9 -58,24 -15,15 -24,35 -24,58 0,23 9,44 24,58zm-101 11l57 0c2,0 3,-1 4,-2 2,-1 2,-3 2,-4 0,-2 0,-4 -2,-5 -1,-1 -2,-2 -4,-2l-57 0c-2,0 -3,1 -4,2 -2,1 -2,3 -2,5 0,1 0,3 2,4 1,1 2,2 4,2zm57 1l-57 0c-2,0 -4,-1 -5,-2 -2,-1 -3,-3 -3,-5 0,-3 1,-5 3,-6 1,-1 3,-2 5,-2l57 0c2,0 4,1 5,2 2,1 3,3 3,6 0,2 -1,4 -3,5 -1,1 -3,2 -5,2zm26 14l-83 0c-2,0 -3,1 -4,2 -2,1 -2,2 -2,4 0,2 0,3 2,5 1,1 2,1 4,1l83 0c2,0 3,0 4,-1 2,-2 2,-3 2,-5 0,-2 0,-3 -2,-4 -1,-1 -2,-2 -4,-2zm-83 -1l83 0c2,0 4,0 5,2 2,1 3,3 3,5 0,2 -1,4 -3,6 -1,1 -3,2 -5,2l-83 0c-2,0 -4,-1 -5,-2 -2,-2 -3,-4 -3,-6 0,-2 1,-4 3,-5 1,-2 3,-2 5,-2zm75 -263c0,-7 -3,-14 -7,-19 -5,-5 -12,-8 -20,-8 -7,0 -14,3 -19,8 -5,5 -8,12 -8,19 0,8 3,14 8,19 5,5 12,8 19,8 8,0 15,-3 20,-8 4,-5 7,-11 7,-19zm-6 -20c5,5 8,12 8,20 0,8 -3,15 -8,20 -6,5 -13,9 -21,9 -7,0 -14,-4 -20,-9 -5,-5 -8,-12 -8,-20 0,-8 3,-15 8,-20 6,-5 13,-8 20,-8 8,0 15,3 21,8zm-35 20c0,-4 2,-7 4,-10 3,-3 6,-4 10,-4 4,0 8,1 11,4 2,3 4,6 4,10 0,4 -2,8 -4,10 -3,3 -7,5 -11,5 -4,0 -7,-2 -10,-5 -2,-2 -4,-6 -4,-10zm5 -9c-2,2 -4,6 -4,9 0,4 2,7 4,9 3,3 6,4 9,4 4,0 7,-1 10,-4 2,-2 4,-5 4,-9 0,-3 -2,-7 -4,-9 -3,-3 -6,-4 -10,-4 -3,0 -6,1 -9,4zm-94 190l-97 0c-2,0 -4,1 -5,2 -1,1 -2,2 -2,4 0,2 1,3 2,5 1,1 3,1 5,1l97 0c1,0 3,0 4,-1 1,-2 2,-3 2,-5 0,-2 -1,-3 -2,-4 -1,-1 -3,-2 -4,-2zm-97 -2l97 0c2,0 4,1 5,3 1,1 2,3 2,5 0,2 -1,4 -2,5 -1,2 -3,3 -5,3l-97 0c-2,0 -4,-1 -6,-3 -1,-1 -2,-3 -2,-5 0,-2 1,-4 2,-5 2,-2 4,-3 6,-3zm97 30l-97 0c-2,0 -4,0 -5,1 -1,2 -2,3 -2,5 0,2 1,3 2,4 1,1 3,2 5,2l97 0c1,0 3,-1 4,-2 1,-1 2,-2 2,-4 0,-2 -1,-3 -2,-5 -1,-1 -3,-1 -4,-1zm-97 -2l97 0c2,0 4,1 5,2 1,2 2,4 2,6 0,2 -1,4 -2,5 -1,2 -3,2 -5,2l-97 0c-2,0 -4,0 -6,-2 -1,-1 -2,-3 -2,-5 0,-2 1,-4 2,-6 2,-1 4,-2 6,-2zm124 -109l-55 0c-2,0 -3,0 -5,2 -1,1 -1,2 -1,4l0 55c0,2 0,4 1,5 2,1 3,2 5,2 2,0 3,-1 4,-2 1,-1 2,-3 2,-5l0 -7 43 0 0 7c0,2 1,4 2,5 1,1 3,2 4,2 2,0 4,-1 5,-2 1,-1 1,-3 1,-5l0 -55c0,-2 0,-3 -1,-4 -1,-2 -3,-2 -5,-2zm-55 -2l55 0c2,0 4,1 6,3 1,1 2,3 2,5l0 55c0,3 -1,4 -2,6 -2,1 -4,2 -6,2 -2,0 -4,-1 -5,-2 -1,-2 -2,-3 -2,-6l0 -6 -40 0 0 6c0,3 -1,4 -3,6 -1,1 -3,2 -5,2 -2,0 -4,-1 -6,-2 -1,-2 -2,-3 -2,-6l0 -55c0,-2 1,-4 2,-5 2,-2 4,-3 6,-3zm48 43l-42 0 0 -29 43 0 0 29 -1 0zm-40 -1l40 0 0 -26 -40 0 0 26zm20 126l-97 0c-2,0 -4,1 -5,2 -1,1 -2,2 -2,4 0,2 1,3 2,5 1,1 3,1 5,1l97 0c1,0 3,0 4,-1 1,-2 2,-3 2,-5 0,-2 -1,-3 -2,-4 -1,-1 -3,-2 -4,-2zm-97 -1l97 0c2,0 4,0 5,2 1,1 2,3 2,5 0,2 -1,4 -2,6 -1,1 -3,2 -5,2l-97 0c-2,0 -4,-1 -6,-2 -1,-2 -2,-4 -2,-6 0,-2 1,-4 2,-5 2,-2 4,-2 6,-2zm97 -27l-97 0c-2,0 -4,1 -5,2 -1,1 -2,3 -2,5 0,1 1,3 2,4 1,1 3,2 5,2l97 0c1,0 3,-1 4,-2 1,-1 2,-3 2,-4 0,-2 -1,-4 -2,-5 -1,-1 -3,-2 -4,-2zm-97 -1l97 0c2,0 4,1 5,2 1,1 2,3 2,6 0,2 -1,4 -2,5 -1,1 -3,2 -5,2l-97 0c-2,0 -4,-1 -6,-2 -1,-1 -2,-3 -2,-5 0,-3 1,-5 2,-6 2,-1 4,-2 6,-2zm34 -76l0 -55c0,-2 -1,-3 -2,-4 -1,-2 -3,-2 -5,-2 -1,0 -3,0 -4,2 -1,1 -2,2 -2,4l0 55c0,2 1,4 2,5 1,1 3,2 4,2 2,0 4,-1 5,-2 1,-1 2,-3 2,-5zm1 -55l0 55c0,3 -1,4 -2,6 -2,1 -4,2 -6,2 -2,0 -4,-1 -5,-2 -1,-2 -2,-3 -2,-6l0 -55c0,-2 1,-4 2,-5 1,-2 3,-3 5,-3 2,0 4,1 6,3 1,1 2,3 2,5zm89 77c-1,0 -3,1 -4,2 -1,1 -2,2 -2,4l0 83c0,2 1,3 2,5 1,1 3,1 4,1 2,0 4,0 5,-1 1,-2 1,-3 1,-5l0 -83c0,-2 0,-3 -1,-4 -1,-1 -3,-2 -5,-2zm-5 1c1,-2 3,-3 5,-3 2,0 4,1 6,3 1,1 2,3 2,5l0 83c0,2 -1,4 -2,6 -2,1 -4,2 -6,2 -2,0 -4,-1 -5,-2 -1,-2 -2,-4 -2,-6l0 -83c0,-2 1,-4 2,-5z"/>
   <path class="fil0" d="M351 508l45 0c4,0 7,-3 7,-7 0,-4 -3,-7 -7,-7l-45 0c-4,0 -7,3 -7,7 0,4 3,7 7,7z"/>
   <path class="fil0" d="M358 390l0 55c0,4 3,7 7,7 4,0 7,-3 7,-7l0 -48 48 0c4,0 7,-3 7,-7 0,-4 -3,-7 -7,-7l-55 0c-4,0 -7,3 -7,7z"/>
   <path class="fil0" d="M344 473c0,4 3,7 7,7l42 0c3,0 6,-3 6,-7 0,-4 -3,-7 -6,-7l-42 0c-4,0 -7,3 -7,7z"/>
   <path class="fil0" d="M545 428l0 0c-2,-1 -3,-1 -5,-1 -2,1 -3,2 -4,3 -11,20 -22,39 -32,58l-19 -22c-2,-2 -3,-3 -5,-4 -1,0 -3,0 -4,1l-1 0c-1,1 -2,3 -3,4 0,2 0,4 1,5l0 0 24 30c1,1 2,1 3,2 0,1 1,1 2,1l1 0c0,0 6,1 9,-3l35 -64c1,-2 2,-4 1,-6 0,-2 -1,-3 -3,-4z"/>
   <path class="fil0" d="M399 65l-237 0c-6,0 -11,5 -11,11 0,6 5,10 11,10l237 0 238 0c6,0 11,-4 11,-10 0,-6 -5,-11 -11,-11l-238 0zm0 561l-194 0 0 0 -140 0c-24,0 -43,-19 -43,-43 0,-24 19,-43 43,-43 24,0 43,19 43,43 0,6 5,11 11,11 6,0 11,-5 11,-11l0 -518c0,-36 -30,-65 -65,-65 -36,0 -65,29 -65,65l0 518c0,36 29,65 65,65l97 0 43 0 194 0 195 0 43 0 97 0c36,0 65,-29 65,-65l0 -518c0,-36 -29,-65 -65,-65 -36,0 -65,29 -65,65l0 518c0,6 5,11 11,11 6,0 11,-5 11,-11 0,-24 19,-43 43,-43 24,0 43,19 43,43 0,24 -19,43 -43,43l-140 0 -1 0 -194 0zm378 -561c0,-24 -19,-43 -43,-43 -24,0 -43,19 -43,43l0 470c11,-10 27,-17 43,-17 17,0 32,7 43,17l0 -470zm-755 0c0,-24 19,-43 43,-43 24,0 43,19 43,43l0 470c-12,-10 -27,-17 -43,-17 -17,0 -32,7 -43,17l0 -470z"/>
  </g>
 </g>
</svg>
