<?xml version="1.0" encoding="UTF-8"?>
<!DOCTYPE svg PUBLIC "-//W3C//DTD SVG 1.1//EN" "http://www.w3.org/Graphics/SVG/1.1/DTD/svg11.dtd">
<!-- Creator: CorelDRAW X7 -->
<svg xmlns="http://www.w3.org/2000/svg" xml:space="preserve" width="35.293mm" height="35.2926mm" version="1.1" style="shape-rendering:geometricPrecision; text-rendering:geometricPrecision; image-rendering:optimizeQuality; fill-rule:evenodd; clip-rule:evenodd"
viewBox="0 0 161 161"
 xmlns:xlink="http://www.w3.org/1999/xlink">
 <defs>
  <style type="text/css">
   <![CDATA[
    .fil0 {fill:#585858}
   ]]>
  </style>
 </defs>
 <g id="Слой_x0020_1">
  <metadata id="CorelCorpID_0Corel-Layer"/>
  <g id="_1825851656112">
   <path class="fil0" d="M105 75c1,0 3,-1 3,-2l0 -22c0,-1 -2,-3 -3,-3l-16 0c-2,0 -3,2 -3,3l0 22c0,1 1,2 3,2l16 0zm-14 -21l11 0 0 16 -11 0 0 -16z"/>
   <path class="fil0" d="M34 51c0,0 1,0 1,0 1,0 1,0 2,-1l44 -44 44 44c0,1 1,1 2,1 1,0 2,-1 2,-3l0 -40c0,-1 -1,-3 -3,-3l-26 0c-2,0 -3,2 -3,3 0,2 1,3 3,3l24 0 0 31 -41 -41c-1,-1 -3,-1 -4,0l-41 41 0 -31 13 0c2,0 3,-1 3,-3l0 -3 5 0 0 3c0,2 1,3 3,3 1,0 3,-1 3,-3l0 -5c0,-2 -2,-3 -3,-3l-11 0c-1,0 -3,1 -3,3l0 2 -13 0c-2,0 -3,2 -3,3l0 40c0,2 1,3 2,3z"/>
   <path class="fil0" d="M40 52c-1,0 -2,2 -2,3l0 34c0,1 1,2 2,2l81 0c2,0 3,-1 3,-2l0 -34c0,-1 -1,-3 -3,-3 -1,0 -3,2 -3,3l0 31 -37 0 0 -35c0,-1 -1,-3 -3,-3l-21 0c-2,0 -3,2 -3,3l0 35 -11 0 0 -31c0,-1 -1,-3 -3,-3zm19 2l16 0 0 13 -2 0c-2,0 -3,1 -3,3 0,1 1,3 3,3l2 0 0 13 -16 0 0 -32z"/>
   <path class="fil0" d="M151 48c-6,0 -11,5 -11,11l0 21c0,2 1,3 3,3 1,0 2,-1 2,-3l0 -21c0,-3 3,-5 6,-5 3,0 5,2 5,5l0 41c0,7 -4,11 -5,11l-24 24c-1,1 -1,3 0,4 1,1 1,1 2,1 1,0 2,0 2,-1l24 -24c0,0 6,-5 6,-15l0 -41c0,-6 -4,-11 -10,-11z"/>
   <path class="fil0" d="M143 145l-35 0 0 -21c0,-8 4,-11 4,-12l19 -19c1,-1 2,-1 4,-1 1,0 2,0 3,1 1,1 2,2 2,3 0,2 -1,3 -2,4l-13 14c-1,1 -1,3 0,4 1,1 2,1 3,0l14 -14c2,-2 3,-5 3,-8 0,-2 -1,-5 -3,-7 -2,-2 -5,-3 -7,-3 -3,0 -6,2 -8,4l-18 18c-1,1 -7,6 -7,16l0 21 -2 0c-2,0 -3,2 -3,3l0 11c0,1 1,2 3,2 1,0 2,-1 2,-2l0 -8 38 0 0 8c0,1 1,2 3,2 1,0 2,-1 2,-2l0 -11c0,-1 -1,-3 -2,-3z"/>
   <path class="fil0" d="M62 145l-3 0 0 -21c0,-10 -6,-15 -6,-16l-19 -18c-2,-2 -4,-4 -7,-4 -3,0 -6,1 -8,3 -2,2 -3,5 -3,8 0,3 2,5 4,7l13 14c1,1 3,1 4,0 1,-1 1,-3 0,-4l-14 -14c-1,-1 -1,-2 -1,-3 0,-2 0,-3 1,-4 1,-1 2,-1 4,-1 1,0 2,0 3,1l19 19c1,1 5,4 5,12l0 21 -35 0c-2,0 -3,2 -3,3l0 11c0,1 1,2 3,2 1,0 3,-1 3,-2l0 -8 37 0 0 8c0,1 1,2 3,2 1,0 3,-1 3,-2l0 -11c0,-1 -2,-3 -3,-3z"/>
   <path class="fil0" d="M32 140c1,0 2,0 2,-1 1,-1 1,-3 0,-4l-24 -24c0,0 -5,-4 -5,-11l0 -41c0,-3 3,-5 6,-5 3,0 5,2 5,5l0 21c0,2 1,3 3,3 1,0 3,-1 3,-3l0 -21c0,-6 -5,-11 -11,-11 -6,0 -11,5 -11,11l0 41c0,10 6,15 6,15l24 24c1,1 2,1 2,1z"/>
  </g>
 </g>
</svg>
