<?xml version="1.0" encoding="UTF-8"?>
<!DOCTYPE svg PUBLIC "-//W3C//DTD SVG 1.1//EN" "http://www.w3.org/Graphics/SVG/1.1/DTD/svg11.dtd">
<!-- Creator: CorelDRAW X7 -->
<svg xmlns="http://www.w3.org/2000/svg" xml:space="preserve" width="35.314mm" height="35.292mm" version="1.1" style="shape-rendering:geometricPrecision; text-rendering:geometricPrecision; image-rendering:optimizeQuality; fill-rule:evenodd; clip-rule:evenodd"
viewBox="0 0 1703 1702"
 xmlns:xlink="http://www.w3.org/1999/xlink">
 <defs>
  <style type="text/css">
   <![CDATA[
    .fil0 {fill:#585858}
   ]]>
  </style>
 </defs>
 <g id="Слой_x0020_1">
  <metadata id="CorelCorpID_0Corel-Layer"/>
  <g id="_2224675010032">
   <path class="fil0" d="M280 1010c1,2 1,4 2,5 1,2 2,3 3,4l58 57 -52 38 -45 -91 32 -21 2 8zm-53 -233l0 -110 6 0c22,-2 57,-7 94,-19 36,-12 76,-31 109,-61l6 -6 4 8c7,15 18,31 32,45 11,11 25,21 41,27l4 2 0 114c0,37 -14,70 -38,94 -24,24 -57,38 -93,38l-33 0c-37,0 -70,-14 -94,-38 -24,-24 -38,-57 -38,-94zm-69 -53c0,-7 2,-13 5,-19 3,-6 7,-11 12,-14l11 -7 0 80 -11 -7c-5,-4 -9,-9 -12,-14 -3,-6 -5,-12 -5,-19zm208 -330l17 0c52,0 98,21 132,54 34,34 55,81 55,132l0 64c-7,-6 -13,-13 -22,-16 -20,-5 -36,-17 -48,-30 -22,-27 -31,-61 -31,-61 -1,-4 -3,-8 -5,-10 -3,-3 -7,-5 -11,-6 -3,-1 -7,0 -11,1 -4,2 -7,4 -9,7 -24,33 -57,55 -91,69 -66,29 -134,29 -136,29 -12,0 -18,11 -26,19l0 -66c0,-51 21,-98 55,-132 33,-33 80,-54 131,-54zm198 358l0 -68 11 7c5,3 9,8 13,14 3,6 4,12 4,19 0,7 -1,13 -4,19 -4,5 -8,10 -13,14l-11 7 0 -12zm-114 357l-45 -33 60 -63c1,0 1,-1 2,-2 0,0 1,-1 1,-2l4 -6 29 19 -44 92 -7 -5zm162 -37c2,1 26,9 48,32 23,22 45,58 45,114l0 110 -84 0 0 -116c0,-5 -2,-10 -6,-14 -3,-4 -8,-6 -14,-6 -6,0 -11,2 -14,6 -4,4 -6,9 -6,14l0 116 -118 0 80 -285c23,10 46,20 69,29zm-272 248l20 -125 30 0 22 133 -74 0 2 -8zm-45 -158l15 -12 11 27 -12 76 -24 -87 5 -2c1,0 2,-1 3,-1 1,0 2,-1 2,-1zm94 -8l-33 0 -12 -28 30 -22 30 22 -11 28 -4 0zm63 8c1,0 2,1 4,1 1,1 2,1 3,2l7 2 -25 87 -12 -78 9 -25 14 11zm-132 -199l0 -17 8 1c5,1 10,2 15,2 5,1 10,1 16,1l33 0c5,0 10,0 15,-1 5,0 10,-1 15,-2l8 -1 0 45 -56 58 -54 -53 0 -33zm-6 406c110,-9 317,0 412,0 5,0 10,-3 14,-6 4,-4 6,-9 6,-15l0 -130c0,-46 -13,-84 -32,-112 -26,-41 -63,-64 -88,-72 -28,-10 -62,-27 -91,-38 -21,-15 -43,-29 -64,-43l0 -22 3 -2c23,-12 42,-30 57,-50 15,-21 26,-44 30,-70l1 -5 5 0c19,-4 35,-14 47,-28 12,-14 19,-32 19,-52 0,-10 -2,-20 -5,-29 -4,-9 -9,-18 -16,-25l-2 -2 0 -88c0,-63 -25,-119 -66,-161 -41,-41 -98,-66 -161,-66l-17 0c-62,0 -119,25 -160,66 -41,42 -67,98 -67,161l0 88 -1 2c-7,7 -12,16 -16,25 -3,9 -5,19 -5,29 0,20 7,38 19,52 12,14 28,24 47,28l5 0 1 5c5,26 15,49 30,70 15,20 34,38 57,50l3 2 0 21 -64 42c-32,11 -64,29 -95,40 -25,8 -62,31 -88,72 -19,28 -32,66 -32,112l0 130c0,6 2,11 6,15 4,3 9,6 14,6l178 0c6,0 11,-3 15,-6 3,-4 6,-9 6,-15 0,-5 -3,-11 -6,-14 -4,-4 -9,-6 -15,-6l-33 0 0 -116c0,-5 -2,-10 -6,-14 -3,-4 -8,-6 -14,-6 -6,0 -11,2 -14,6 -4,4 -6,9 -6,14l0 116 -84 0 0 -110c0,-38 10,-67 24,-88 26,-42 66,-57 68,-58 25,-9 50,-20 74,-30 27,95 54,190 80,285l-7 1c-4,1 -8,4 -11,7 -3,4 -5,8 -5,13 0,6 3,11 6,15 4,3 9,6 15,6l29 0z"/>
   <path class="fil0" d="M297 260c76,-71 162,-126 256,-163 94,-37 195,-56 298,-56 92,0 183,16 269,46 85,30 166,74 238,132l15 12 -63 0c-6,0 -11,2 -14,6l0 0c-4,4 -6,9 -6,14 0,6 2,11 6,15l0 0c3,4 8,6 14,6l108 0c6,0 11,-2 15,-6 3,-4 6,-9 6,-15l0 -97c0,-6 -3,-11 -6,-14 -4,-4 -9,-6 -15,-6 -5,0 -11,2 -14,6 -4,3 -6,8 -6,14l0 45 -11 -9c-76,-61 -161,-109 -252,-141 -90,-32 -186,-49 -284,-49 -109,0 -214,20 -313,59 -98,39 -189,97 -268,171l-1 0c-4,4 -6,9 -6,14 0,5 2,10 5,14l0 1c4,4 9,6 15,6 5,0 10,-2 14,-5z"/>
   <path class="fil0" d="M1382 1462c-73,64 -157,114 -247,147 -91,34 -187,52 -284,52 -88,0 -174,-15 -256,-42 -82,-27 -160,-68 -230,-120l-16 -12 65 0c6,0 11,-2 15,-6 3,-4 6,-9 6,-14 0,-6 -3,-11 -6,-15 -4,-4 -9,-6 -15,-6l-108 0c-6,0 -11,2 -15,6 -3,4 -6,9 -6,15l0 97c0,6 3,11 6,14 4,4 9,6 15,6 6,0 11,-2 14,-6 4,-3 6,-8 6,-14l0 -43 11 8c74,56 156,99 243,128 86,29 178,45 271,45 102,0 203,-19 298,-54 94,-36 183,-88 260,-155 4,-4 7,-9 7,-14 0,-5 -1,-11 -5,-15 -4,-4 -9,-7 -14,-7 -5,0 -11,1 -15,5z"/>
   <path class="fil0" d="M1655 1328l-77 0 0 -116c0,-5 -2,-10 -6,-14 -4,-4 -9,-6 -14,-6 -6,0 -11,2 -15,6 -3,4 -6,9 -6,14l0 116 -118 0 80 -285c23,10 47,21 70,29 3,1 43,16 69,58 14,21 24,50 24,88l0 110 -7 0zm-359 -8l20 -125 31 0 21 133 -73 0 1 -8zm-59 -310c0,2 1,4 2,5 1,2 2,3 3,4l58 57 -53 38 -44 -91 31 -21 3 8zm-54 -233l0 -110 6 0c23,-2 57,-7 94,-19 37,-12 76,-31 109,-61l7 -6 4 8c7,15 18,31 32,45 11,11 25,21 41,27l4 2 0 114c0,37 -15,70 -39,94 -24,24 -57,38 -93,38l-33 0c-36,0 -69,-14 -93,-38 -24,-24 -39,-57 -39,-94zm-69 -53c0,-7 2,-13 5,-19 3,-6 8,-11 13,-14l10 -7 0 80 -10 -7c-5,-4 -10,-9 -13,-14 -3,-6 -5,-12 -5,-19zm209 -330l17 0c51,0 98,21 132,54 33,34 54,81 54,132l0 64c-7,-6 -12,-13 -21,-16l0 0c0,0 0,0 0,0l0 0c-21,-5 -36,-17 -48,-30 -23,-27 -31,-61 -31,-61 -1,-4 -3,-8 -6,-10 -3,-3 -6,-5 -10,-6 -4,-1 -8,0 -11,1 -4,2 -7,4 -10,7 -23,33 -57,55 -90,69 -66,29 -135,29 -136,29 -2,0 -3,1 -4,1 -1,0 -3,1 -4,1l-2 1c-7,4 -11,11 -16,16l0 -66c0,-51 21,-98 54,-132 34,-33 80,-54 132,-54zm182 234c0,0 0,0 0,0zm16 124l0 -68 10 7c6,3 10,8 13,14 3,6 5,12 5,19 0,7 -2,13 -5,19 -3,5 -7,10 -13,14l-10 7 0 -12zm-114 357l-46 -33 61 -63c0,0 1,-1 1,-2 1,0 1,-1 2,-2l3 -6 30 19 -45 92 -6 -5zm-97 39l-9 -22 29 -22 31 22 -11 28 -40 0 0 -6zm-58 14l15 -12 11 27 -12 76 -25 -87 6 -2c1,0 2,-1 2,-1 1,0 2,-1 3,-1zm157 0c1,0 2,1 3,1 1,1 3,1 4,2l6 2 -24 87 -13 -78 10 -25 14 11zm-132 -206l0 -10 8 1c5,1 10,2 15,2 5,1 10,1 15,1l33 0c6,0 11,0 16,-1 5,0 10,-1 15,-2l8 -1 0 45 -56 58 -54 -53 0 -40zm306 78l-91 -38c-22,-15 -43,-29 -65,-43l0 -22 4 -2c22,-12 42,-30 57,-50 15,-21 25,-44 30,-70l1 -5 4 0c19,-4 36,-14 48,-28 12,-14 19,-32 19,-52 0,-10 -2,-20 -6,-29 -3,-9 -9,-18 -15,-25l-2 -2 0 -88c0,-63 -25,-119 -67,-161 -41,-41 -97,-66 -160,-66l-17 0c-63,0 -120,25 -161,66 -41,42 -66,98 -66,161l0 88 -2 2c-6,7 -12,16 -15,25 -4,9 -5,19 -5,29 0,20 7,38 18,52 12,14 29,24 48,28l5 0 0 5c5,26 16,49 30,70 15,20 35,38 57,50l4 2 0 21 -65 42c-31,11 -64,29 -95,40 -24,8 -61,31 -88,72 -18,28 -31,66 -31,112l0 130c0,6 2,11 6,15 3,3 8,6 14,6l178 0c5,0 11,-3 14,-6 4,-4 6,-9 6,-15 0,-5 -2,-11 -6,-14 -3,-4 -9,-6 -14,-6l-33 0 0 -116c0,-5 -2,-10 -6,-14l0 0c-4,-4 -9,-6 -14,-6 -6,0 -11,2 -15,6 -4,4 -6,9 -6,14l0 116 -84 0 0 -110c0,-38 11,-67 24,-88 27,-42 66,-57 69,-58 24,-9 50,-20 74,-30 26,95 53,190 80,285l-7 1c-5,1 -9,4 -12,7 -2,4 -4,8 -4,13 0,6 2,11 6,15 4,3 9,6 14,6l441 0c6,0 11,-3 15,-6 3,-4 6,-9 6,-15l0 -130c0,-46 -14,-84 -32,-112 -27,-41 -63,-64 -88,-72l0 0z"/>
  </g>
 </g>
</svg>
