<?xml version="1.0" encoding="UTF-8"?>
<!DOCTYPE svg PUBLIC "-//W3C//DTD SVG 1.1//EN" "http://www.w3.org/Graphics/SVG/1.1/DTD/svg11.dtd">
<!-- Creator: CorelDRAW X7 -->
<svg xmlns="http://www.w3.org/2000/svg" xml:space="preserve" width="35.2946mm" height="35.2925mm" version="1.1" style="shape-rendering:geometricPrecision; text-rendering:geometricPrecision; image-rendering:optimizeQuality; fill-rule:evenodd; clip-rule:evenodd"
viewBox="0 0 107 107"
 xmlns:xlink="http://www.w3.org/1999/xlink">
 <defs>
  <style type="text/css">
   <![CDATA[
    .fil0 {fill:#585858}
   ]]>
  </style>
 </defs>
 <g id="Слой_x0020_1">
  <metadata id="CorelCorpID_0Corel-Layer"/>
  <g id="_1825848150016">
   <path class="fil0" d="M44 85l25 0c1,0 2,0 2,-1 0,-1 -1,-2 -2,-2l-25 0c-1,0 -1,1 -1,2 0,1 0,1 1,1z"/>
   <path class="fil0" d="M34 16c0,1 1,2 2,2l62 0c3,0 5,2 5,5l0 43c0,1 1,2 2,2 1,0 2,-1 2,-2l0 -43c0,-5 -4,-9 -9,-9l-62 0c-1,0 -2,1 -2,2z"/>
   <path class="fil0" d="M44 75l18 0c1,0 2,-1 2,-2 0,-1 -1,-2 -2,-2l-18 0c-1,0 -1,1 -1,2 0,1 0,2 1,2z"/>
   <path class="fil0" d="M62 103l-30 0 0 -80c0,-5 -4,-9 -9,-9 -5,0 -9,4 -9,9l0 61c0,3 -2,5 -5,5 -3,0 -5,-2 -5,-5l0 -80 71 0 0 5c0,1 0,2 1,2 1,0 2,-1 2,-2l0 -7c0,-1 -1,-2 -2,-2l-74 0c-1,0 -2,1 -2,2l0 82c0,4 4,8 9,8 5,0 9,-4 9,-8l0 -61c0,-3 2,-5 5,-5 3,0 5,2 5,5l0 66 -8 0c-1,0 -2,1 -2,2 0,1 1,1 2,1l8 0 0 13c0,1 1,2 2,2l32 0c1,0 2,-1 2,-2 0,-1 -1,-2 -2,-2z"/>
   <path class="fil0" d="M82 73c0,-1 -1,-2 -2,-2l-11 0c-1,0 -1,1 -1,2 0,1 0,2 1,2l11 0c1,0 2,-1 2,-2z"/>
   <path class="fil0" d="M105 73l-4 -3c-3,-3 -7,-3 -10,0l-23 23c0,0 0,1 0,1l0 11c0,1 0,2 1,2l11 0c0,0 1,0 1,-1l24 -23c2,-3 2,-7 0,-10zm-16 4l3 3 -16 15 -2 -3 15 -15zm-18 26l0 -8 8 8 -8 0zm11 -2l-3 -3 15 -16 3 3 -15 16zm20 -21l-2 3 -8 -8 2 -3c1,-1 3,-1 5,0l3 4c2,1 2,3 0,4z"/>
   <path class="fil0" d="M85 62l0 -15 1 0c0,1 1,1 1,1 1,0 1,0 1,-1 1,0 1,-1 0,-2l-3 -4 0 0 -16 -16c-1,0 -2,0 -3,0l-16 16 0 0 -3 4c-1,1 -1,2 0,2 0,1 2,1 2,0l1 0 0 15c0,1 1,2 2,2l12 0c1,0 2,-1 2,-2l0 -9 3 0 0 9c0,1 1,2 2,2l13 0c1,0 1,-1 1,-2zm-3 -2l-9 0 0 -8c0,-1 -1,-2 -2,-2l-7 0c-1,0 -2,1 -2,2l0 8 -9 0 0 -17 15 -14 14 14 0 17z"/>
  </g>
 </g>
</svg>
