<?xml version="1.0" encoding="UTF-8"?>
<!DOCTYPE svg PUBLIC "-//W3C//DTD SVG 1.1//EN" "http://www.w3.org/Graphics/SVG/1.1/DTD/svg11.dtd">
<!-- Creator: CorelDRAW X7 -->
<svg xmlns="http://www.w3.org/2000/svg" xml:space="preserve" width="63.0572mm" height="35.292mm" version="1.1" style="shape-rendering:geometricPrecision; text-rendering:geometricPrecision; image-rendering:optimizeQuality; fill-rule:evenodd; clip-rule:evenodd"
viewBox="0 0 1025 574"
 xmlns:xlink="http://www.w3.org/1999/xlink">
 <defs>
  <style type="text/css">
   <![CDATA[
    .fil0 {fill:#585858}
    .fil1 {fill:#585858;fill-rule:nonzero}
   ]]>
  </style>
 </defs>
 <g id="Слой_x0020_1">
  <metadata id="CorelCorpID_0Corel-Layer"/>
  <g id="_2224665032848">
   <g>
    <path class="fil0" d="M472 375c-6,0 -10,5 -10,10l0 169 -70 0c-5,0 -10,4 -10,10 0,5 5,10 10,10l80 0c5,0 10,-5 10,-10l0 -179c0,-5 -5,-10 -10,-10z"/>
    <path class="fil0" d="M442 464l0 -79c0,-5 -4,-10 -10,-10l-59 0c-6,0 -10,5 -10,10l0 79c0,6 4,10 10,10l59 0c6,0 10,-4 10,-10zm-20 -9l-40 0 0 -60 40 0 0 60z"/>
    <path class="fil0" d="M353 534l-100 0c-5,0 -10,4 -10,10l0 10 -99 0 0 -139c0,-6 -4,-10 -10,-10 -5,0 -10,4 -10,10l0 149c0,5 5,10 10,10l119 0c6,0 10,-5 10,-10l0 -10 80 0 0 10c0,5 4,10 10,10 5,0 10,-5 10,-10l0 -20c0,-6 -5,-10 -10,-10z"/>
    <path class="fil0" d="M333 514c5,0 10,-4 10,-10l0 -119c0,-5 -5,-10 -10,-10l-60 0c-5,0 -10,5 -10,10l0 119c0,6 5,10 10,10 6,0 10,-4 10,-10l0 -109 40 0 0 40 -10 0c-6,0 -10,4 -10,10 0,5 4,10 10,10l10 0 0 49c0,6 4,10 10,10z"/>
    <path class="fil0" d="M174 375c-6,0 -10,5 -10,10l0 79c0,6 4,10 10,10l59 0c6,0 10,-4 10,-10l0 -79c0,-5 -4,-10 -10,-10l-59 0zm50 80l-40 0 0 -60 40 0 0 60z"/>
   </g>
   <path class="fil0" d="M472 375c-6,0 -10,5 -10,10l0 169 -70 0c-5,0 -10,4 -10,10 0,5 5,10 10,10l80 0c5,0 10,-5 10,-10l0 -179c0,-5 -5,-10 -10,-10z"/>
   <path class="fil0" d="M501 564c0,5 4,10 10,10l161 0 0 -20 -161 0c-6,0 -10,4 -10,10z"/>
   <path class="fil0" d="M472 261c-6,0 -10,4 -10,10l0 161 20 0 0 -161c0,-6 -5,-10 -10,-10z"/>
   <path class="fil0" d="M472 195c-6,0 -10,5 -10,10l0 161 20 0 0 -161c0,-5 -5,-10 -10,-10z"/>
   <path class="fil0" d="M134 261c-5,0 -10,4 -10,10l0 161 20 0 0 -161c0,-6 -4,-10 -10,-10z"/>
   <path class="fil0" d="M134 151c-5,0 -10,4 -10,10l0 161 20 0 0 -161c0,-6 -4,-10 -10,-10z"/>
   <g>
    <path class="fil0" d="M127 167c4,4 10,5 14,1l119 -109 -14 -15 -119 109c-4,4 -4,10 0,14z"/>
    <path class="fil0" d="M306 3c-4,-4 -10,-4 -14,0l-119 108 13 15 119 -109c4,-3 4,-10 1,-14z"/>
   </g>
   <g>
    <path class="fil0" d="M470 167c-4,4 -10,5 -14,1l-119 -109 14 -15 118 109c4,4 5,10 1,14z"/>
    <path class="fil0" d="M291 3c4,-4 10,-4 14,0l119 108 -14 15 -118 -109c-4,-3 -5,-10 -1,-14z"/>
   </g>
   <g>
    <path class="fil0" d="M453 161c0,5 4,9 10,9l161 0 0 -19 -161 0c-6,0 -10,4 -10,10z"/>
    <path class="fil0" d="M807 161c0,5 -5,9 -10,9l-161 0 0 -19 161 0c5,0 10,4 10,10z"/>
    <path class="fil0" d="M752 161c0,5 -5,9 -10,9l-161 0 0 -19 161 0c5,0 10,4 10,10z"/>
   </g>
   <g>
    <path class="fil0" d="M348 10c0,5 5,10 10,10l161 0 0 -20 -161 0c-5,0 -10,4 -10,10z"/>
    <path class="fil0" d="M702 10c0,5 -4,10 -9,10l-162 0 0 -20 162 0c5,0 9,4 9,10z"/>
    <path class="fil0" d="M647 10c0,5 -4,10 -10,10l-161 0 0 -20 161 0c6,0 10,4 10,10z"/>
   </g>
   <g>
    <path class="fil0" d="M864 167c-4,4 -10,5 -14,1l-119 -109 14 -15 118 109c5,4 5,10 1,14z"/>
    <path class="fil0" d="M685 3c4,-4 10,-4 14,0l119 108 -13 15 -119 -109c-4,-3 -5,-10 -1,-14z"/>
   </g>
   <path class="fil1" d="M303 124c19,0 36,8 48,20 12,13 20,30 20,48 0,19 -8,36 -20,48 -12,13 -29,20 -48,20 -19,0 -36,-7 -48,-20 -12,-12 -20,-29 -20,-48 0,-18 8,-35 20,-48 12,-12 29,-20 48,-20zm35 34c-9,-9 -21,-15 -35,-15 -14,0 -26,6 -35,15 -9,8 -14,21 -14,34 0,14 5,26 14,35 9,9 21,14 35,14 14,0 26,-5 35,-14 9,-9 14,-21 14,-35 0,-13 -5,-26 -14,-34z"/>
   <path class="fil0" d="M775 403c-6,0 -10,4 -10,10l0 161 20 0 0 -161c0,-6 -5,-10 -10,-10z"/>
   <path class="fil1" d="M775 225c34,0 65,14 87,36 22,23 36,54 36,88 0,34 -14,64 -36,87 -15,15 -34,26 -56,32l0 -2c21,-5 40,-16 55,-31 22,-22 36,-53 36,-86 0,-34 -14,-65 -36,-87 -22,-22 -53,-35 -86,-35 -34,0 -65,13 -87,35 -21,22 -35,52 -35,85l-2 0c1,-33 14,-64 36,-86 23,-22 54,-36 88,-36z"/>
   <path class="fil1" d="M775 216c17,0 35,4 50,10 16,7 31,17 43,29 12,12 22,27 29,43 6,16 10,33 10,51 0,17 -4,34 -10,50 -7,16 -17,31 -29,43 -8,8 -17,15 -27,21 -10,6 -21,10 -32,13 -5,2 -10,-1 -11,-6 0,-1 0,-1 0,-2l0 0 0 -2c0,-4 3,-7 7,-8 9,-3 18,-7 26,-11 9,-5 17,-11 24,-18 10,-11 19,-23 24,-37 6,-13 9,-28 9,-43 0,-16 -3,-30 -9,-44 -5,-14 -14,-26 -24,-37 -11,-10 -23,-18 -37,-24 -13,-6 -28,-9 -43,-9 -16,0 -30,3 -44,9 -13,6 -26,14 -36,24 -11,11 -19,23 -25,37 -5,13 -8,27 -9,42 0,5 -3,9 -8,9l-1 0c-5,1 -9,-3 -9,-8 0,0 0,-1 0,-1 0,-18 3,-34 10,-50 6,-15 16,-30 28,-42 12,-12 27,-22 43,-29 16,-6 33,-10 51,-10z"/>
   <path class="fil0" d="M662 454c-6,0 -10,4 -10,9l0 111 20 0 0 -111c0,-5 -5,-9 -10,-9z"/>
   <path class="fil1" d="M662 383c17,0 33,7 45,18 11,12 18,28 18,45 0,18 -7,33 -18,45 -4,4 -9,7 -13,10l0 -2c4,-2 8,-5 12,-9 11,-11 18,-27 18,-44 0,-17 -7,-32 -18,-44 -12,-11 -27,-18 -44,-18 -17,0 -33,7 -44,18 -11,12 -18,27 -18,44 0,17 7,33 18,44 4,4 8,7 12,9l0 2c-5,-3 -9,-6 -13,-10 -11,-12 -18,-27 -18,-45 0,-17 7,-33 18,-45 12,-11 27,-18 45,-18z"/>
   <path class="fil1" d="M662 374c10,0 19,2 27,6 9,3 17,9 24,15l0 0c6,7 12,15 15,24 4,8 6,17 6,27 0,10 -2,19 -6,28 -3,8 -9,16 -15,23l0 0 0 0c-2,2 -5,4 -7,6 -3,2 -5,4 -8,5 -4,3 -10,1 -12,-3 -1,-1 -1,-3 -1,-4l0 0 0 -2c0,-3 2,-6 5,-7 1,-2 3,-3 5,-4l0 0 0 0c1,-1 3,-3 4,-4 5,-5 9,-11 12,-18 3,-6 4,-13 4,-20 0,-7 -1,-14 -4,-20 -3,-7 -7,-12 -12,-17 -4,-5 -10,-9 -17,-12 -6,-3 -13,-4 -20,-4 -7,0 -14,1 -20,4 -7,3 -13,7 -18,12 -5,5 -9,10 -11,17 -3,6 -4,13 -4,20 0,7 1,14 4,20 2,7 6,13 11,18l1 0c1,2 3,3 4,4l0 0c2,2 4,3 6,4 2,1 4,4 4,7l0 0 0 2c0,5 -4,9 -9,9 -2,0 -3,-1 -5,-2 -2,-1 -5,-3 -7,-5 -3,-2 -5,-4 -7,-6l0 0c-7,-7 -12,-15 -16,-23 -3,-9 -5,-18 -5,-28 0,-10 2,-19 5,-27 4,-9 9,-17 16,-24l0 0c7,-6 15,-12 23,-15 9,-4 18,-6 28,-6z"/>
   <path class="fil1" d="M128 196c3,-1 4,-3 4,-5 1,-3 -2,-6 -6,-5 -3,1 -6,1 -9,2 -7,1 -5,10 1,10 4,-1 7,-2 10,-2zm-39 9c6,-2 5,-11 -1,-10 -1,0 -1,0 -1,0 -3,1 -7,2 -10,3 -6,1 -4,10 2,9 0,0 1,0 1,0 3,-1 6,-2 9,-2zm-37 11c5,-2 3,-10 -3,-9 -1,0 -1,0 -1,0 -3,1 -6,2 -10,4 -4,2 -4,7 0,9 2,1 3,1 4,0 3,-1 6,-2 10,-4zm-35 18c5,-4 0,-12 -6,-9 -3,2 -6,5 -8,8 -4,4 0,10 5,8 1,0 2,-1 2,-1 2,-2 5,-4 7,-6zm-8 27c-2,-2 -5,-3 -7,-1 -2,1 -3,5 -1,7 3,3 5,5 8,8 4,3 10,-2 8,-7 -1,0 -1,-1 -2,-1 -2,-2 -4,-4 -6,-6zm31 20c-5,-2 -9,4 -5,8 1,1 1,1 1,1 4,2 7,3 10,4 5,2 9,-5 5,-9 -1,0 -1,0 -2,0 -3,-1 -6,-3 -9,-4zm38 13c-6,-2 -9,6 -4,9 0,0 1,1 1,1 3,1 7,1 10,2 2,1 4,0 5,-2 2,-3 1,-6 -3,-7 -3,-1 -6,-2 -9,-3zm39 10c-6,-2 -9,5 -4,9 0,0 1,0 1,0 4,1 7,2 10,3 6,1 9,-8 3,-10 0,0 0,0 -1,0 -3,-1 -6,-2 -9,-2zm39 7c-1,0 -2,0 -4,1 -4,2 -3,8 2,9l10 2c7,1 8,-9 2,-10l-10 -2zm39 6c-5,0 -8,7 -2,10 0,0 1,0 1,0 3,1 7,1 10,2 6,0 8,-7 3,-10 -1,0 -1,0 -2,0 -3,-1 -6,-1 -10,-2zm40 5c-6,0 -7,10 -1,10l10 2c6,0 8,-9 2,-10 0,0 0,0 -1,0l-10 -2zm40 5c-6,-1 -8,7 -2,9 1,0 1,1 1,1l10 1c6,0 8,-8 2,-10 0,0 0,0 -1,-1l-10 0zm40 3c-1,0 -2,0 -2,0 -5,3 -4,9 2,10l10 1c6,0 7,-10 0,-10l-10 -1zm40 3c-6,-1 -7,9 0,10 3,0 6,0 10,0 6,0 7,-9 1,-10 -4,0 -7,0 -11,0zm40 1c-1,0 -2,1 -3,2 -3,3 -2,8 3,9l10 0c6,0 8,-8 2,-10 -1,0 -1,0 -1,0l-11 -1zm41 2c-7,0 -7,10 -1,10 4,0 7,0 10,0 7,0 7,-10 1,-10 -4,0 -7,0 -10,0zm40 1c-7,0 -7,9 -1,10 4,0 7,0 11,0 3,0 6,-4 4,-7 0,-2 -2,-3 -4,-3l-10 0zm40 0c-6,0 -7,8 -1,10 0,0 1,0 1,0l10 0c6,0 7,-9 1,-10 0,0 -1,0 -1,0l-10 0zm40 -1c-5,0 -7,8 -2,10 1,0 2,0 2,0l10 0c7,0 7,-10 0,-10l-10 0zm40 -1c-6,1 -6,10 0,11 3,0 9,0 11,-1 6,0 6,-10 0,-10 -4,0 -7,0 -11,0zm41 -1c-6,0 -7,8 -1,10 0,0 0,0 1,0 3,0 7,0 10,0 6,-1 7,-9 1,-10 -1,-1 -1,-1 -1,-1 -4,1 -7,1 -10,1zm40 -2c-6,0 -7,8 -1,10 0,0 1,0 1,0l10 -1c7,0 6,-10 0,-10l-10 1zm40 -3c-6,0 -7,8 -1,10 0,0 1,0 2,0l10 -1c6,0 6,-10 -1,-10l0 0 -10 1zm40 -4c-6,1 -7,9 -1,10 1,0 1,1 2,0l10 -1c5,0 6,-8 0,-9 0,-1 -1,-1 -1,-1 -4,1 -7,1 -10,1zm40 -4c-6,1 -6,10 0,10 0,0 1,0 1,0 3,0 7,-1 10,-1 6,-1 5,-11 -1,-10 -4,0 -7,1 -10,1zm39 -5c-5,0 -6,8 0,10 1,0 1,0 2,0 3,-1 7,-1 10,-2 5,-1 6,-8 0,-10 -1,0 -1,0 -2,0l-10 2zm40 -7c-2,0 -3,2 -4,3 -1,4 2,8 6,7 3,-1 6,-1 10,-2 1,0 3,-1 3,-3 2,-4 -1,-7 -5,-7 -3,1 -7,2 -10,2zm39 -8c-5,1 -5,9 1,10 0,0 1,0 1,0 4,-1 7,-2 10,-3 6,-1 5,-9 -1,-10 0,0 -1,1 -1,1 -3,0 -7,1 -10,2zm39 -10c-7,2 -4,11 2,9 4,-1 7,-2 10,-3 5,-2 5,-9 -1,-10 -1,0 -1,0 -2,0 -3,1 -6,3 -9,4zm36 -15c-5,3 -2,10 3,9 1,0 1,0 2,0 3,-2 6,-3 9,-5 4,-3 2,-10 -3,-10 -1,1 -2,1 -3,1 -2,2 -5,4 -8,5zm25 -24c0,3 1,5 3,6 3,1 7,-1 7,-5 0,-4 0,-8 -2,-12 -3,-5 -11,-3 -10,4 1,0 1,0 1,0 1,2 1,5 1,7zm-21 -24c5,2 9,-4 6,-8 -1,-1 -1,-1 -2,-1 -3,-2 -6,-3 -9,-5 -6,-2 -10,6 -4,9 3,2 6,3 9,5zm-37 -15c5,1 9,-5 5,-9 0,-1 -1,-1 -1,-1 -4,-1 -7,-2 -10,-3 -5,-1 -8,3 -6,7 1,1 2,2 3,3 3,0 6,1 9,3zm-38 -11c6,1 9,-7 3,-10 0,0 0,0 -1,0 -3,-1 -6,-2 -9,-2 -6,-2 -9,6 -4,9 0,0 1,0 1,0 4,1 7,2 10,3zm-39 -9c6,1 8,-7 3,-9 0,0 -1,0 -1,0 -4,-1 -7,-2 -10,-2 -6,-1 -9,7 -3,9 1,0 1,1 1,1 3,0 7,1 10,1z"/>
   <g>
    <path class="fil0" d="M847 545l0 9 -12 0 0 20 22 0c5,0 10,-5 10,-10l0 -19 -20 0z"/>
    <path class="fil0" d="M857 494c-6,0 -10,5 -10,10l0 42 20 0 0 -42c0,-5 -5,-10 -10,-10z"/>
    <path class="fil0" d="M854 554l-37 0c-5,0 -10,4 -10,10 0,5 5,10 10,10l37 0 0 -20z"/>
   </g>
   <path class="fil0" d="M857 151c-6,0 -10,4 -10,10l0 9 0 2 0 0 0 8 0 1 0 0 0 2 0 7 0 2 0 0 0 1 0 8 0 0 0 2 0 10c0,5 4,9 10,9 5,0 10,-4 10,-9l0 -10 0 -2 0 0 0 -8 0 -1 0 0 0 -2 0 -7 0 -2 0 0 0 -1 0 -8 0 0 0 -2 0 -9c0,-6 -5,-10 -10,-10z"/>
   <path class="fil0" d="M969 290l0 1 0 0 -2 5 0 0 0 0 -1 2 -1 3 -1 1 0 0 0 1 -2 5 0 0 0 1 -3 5c-1,3 1,7 4,8 3,1 6,0 8,-3l2 -6 0 -1 0 0 2 -5 0 0 1 0 0 -1 1 -4 1 -1 0 0 0 -1 2 -4 0 0 1 -2 2 -5 0 0c0,0 0,0 0,0l0 0 0 0 0 0 0 -1c0,0 0,0 0,0l0 0 0 0 0 0c0,-1 0,-1 0,-1l0 0 0 -1 0 0 0 0 0 0 0 0 0 0 0 0 0 0 0 0 0 0 0 -1 0 0 0 0 0 0 0 0 0 0 0 0 0 0 0 0 0 0 0 0 0 0 0 0 0 0 0 -1 0 0 0 0 0 0 -1 0 0 0 0 0 0 0 0 0 0 0 0 0 0 0 0 0 0 0 0 0 0 0 0 -1 0 0 0 0 0 0 0 0 0 0 0 0 0 0 0 0 0 0 -1 0 0 0c0,-1 0,-1 -1,-1l0 0 0 0 0 0c0,0 0,0 0,0l0 -1 0 0 0 0 0 0c0,0 -1,0 -1,0l0 0 -5 -2 -1 0 0 0 -5 -2 -1 -1 0 0 -1 0 -3 -2 -2 0 0 0 0 0 -5 -2 0 0 -1 -1 -5 -2c-4,-1 -7,1 -8,4 -2,3 0,6 3,8l5 2 2 0 0 0 4 2 1 0 0 0 1 1 4 1 1 1 0 0 0 0 5 2 0 0 1 0z"/>
   <path class="fil0" d="M52 291l0 0 0 0 -2 -5 0 -1 0 0 -1 -1 -1 -4 -1 -1 0 0 0 0 -2 -5 0 0 0 -1 -3 -6c-1,-3 1,-6 4,-8 3,-1 7,1 8,4l2 5 0 1 0 0 2 5 1 1 0 0 0 1 2 3 0 2 0 0 0 0 2 5 0 0 1 1 2 6 0 0c0,0 0,0 0,0l0 0 0 0 0 0 0 0c0,0 0,1 0,1l0 0 0 0 0 0c0,0 0,1 0,1l0 0 0 0 0 0 0 0 0 0 0 1 0 0 0 0 0 0 0 0 0 0 0 0 0 0 0 0 0 0 0 0 0 0 0 1 0 0 0 0 0 0 0 0 0 0 0 0 0 0 0 0 0 0 0 0 0 0 0 0 0 0 -1 1 0 0 0 0 0 0 0 0 0 0 0 0 0 0 0 0 0 0 0 0 0 0 0 0 0 0 0 1 0 0 0 0 0 0 0 0 0 0 -1 0 0 0c0,0 0,1 0,1l0 0 -1 0 0 0c0,0 0,0 0,0l0 0 0 0 0 0 0 0c0,0 -1,0 -1,0l0 0 -5 3 -1 0 0 0 -5 2 0 0 -1 0 -1 1 -3 1 -1 1 -1 0 0 0 -5 2 0 0 -1 0 -5 2c-3,2 -7,0 -8,-3 -2,-3 0,-7 3,-8l5 -2 2 -1 0 0 4 -2 1 0 0 0 1 0 4 -2 1 0 0 0 0 0 5 -2 0 0 1 -1z"/>
  </g>
 </g>
</svg>
